<?xml version="1.0" encoding="UTF-8"?>
<!DOCTYPE svg PUBLIC "-//W3C//DTD SVG 1.1//EN" "http://www.w3.org/Graphics/SVG/1.1/DTD/svg11.dtd">
<svg xmlns="http://www.w3.org/2000/svg" version="1.1" width="500px" height="500px" style="shape-rendering:geometricPrecision; text-rendering:geometricPrecision; image-rendering:optimizeQuality; fill-rule:evenodd; clip-rule:evenodd" xmlns:xlink="http://www.w3.org/1999/xlink">
<g><path style="opacity:0.994" fill="#000000" d="M 228.5,-0.5 C 242.5,-0.5 256.5,-0.5 270.5,-0.5C 349.05,8.17903 411.217,44.5124 457,108.5C 481.012,144.707 495.179,184.374 499.5,227.5C 499.5,242.167 499.5,256.833 499.5,271.5C 487.586,366.888 438.586,435.722 352.5,478C 326.196,489.574 298.863,496.741 270.5,499.5C 256.5,499.5 242.5,499.5 228.5,499.5C 149.953,490.822 87.7862,454.489 42,390.5C 17.987,354.291 3.82029,314.624 -0.5,271.5C -0.5,256.833 -0.5,242.167 -0.5,227.5C 9.21286,144.2 49.2129,80.0338 119.5,35C 153.29,15.0136 189.624,3.18023 228.5,-0.5 Z"/></g>
<g><path style="opacity:1" fill="#fefefe" d="M 206.5,116.5 C 206.5,121.167 206.5,125.833 206.5,130.5C 206.333,170.168 206.5,209.835 207,249.5C 207.833,250.333 208.667,251.167 209.5,252C 213.152,252.499 216.818,252.665 220.5,252.5C 222.229,253.117 223.729,254.117 225,255.5C 225.499,259.152 225.665,262.818 225.5,266.5C 226.254,269.091 227.921,270.924 230.5,272C 234.027,272.808 237.36,272.641 240.5,271.5C 242.752,271.084 244.252,269.751 245,267.5C 245.333,263.5 245.667,259.5 246,255.5C 246.833,254.667 247.667,253.833 248.5,253C 252.833,252.667 257.167,252.333 261.5,252C 262.333,251.167 263.167,250.333 264,249.5C 264.009,200.75 264.676,152.083 266,103.5C 266.75,102.874 267.584,102.374 268.5,102C 295.5,101.333 322.5,101.333 349.5,102C 350.71,103.039 351.71,104.206 352.5,105.5C 352.667,147.168 352.5,188.835 352,230.5C 350.829,231.893 349.329,232.727 347.5,233C 343.445,233.232 339.445,233.732 335.5,234.5C 334.138,239.966 332.804,245.466 331.5,251C 326.135,251.94 320.802,252.94 315.5,254C 314.167,259.667 312.833,265.333 311.5,271C 301.991,271.17 292.658,271.67 283.5,272.5C 279.992,274.425 278.659,277.425 279.5,281.5C 279.667,322.168 279.5,362.835 279,403.5C 278.348,405.723 276.848,406.89 274.5,407C 256.503,407.5 238.503,407.667 220.5,407.5C 215.5,407.5 210.5,407.5 205.5,407.5C 202.15,407.665 198.817,407.498 195.5,407C 192.785,406.125 191.452,404.292 191.5,401.5C 191.5,363.167 191.5,324.833 191.5,286.5C 191.665,282.818 191.499,279.152 191,275.5C 189.833,274.333 188.667,273.167 187.5,272C 178.84,271.5 170.173,271.334 161.5,271.5C 159.167,271.167 157.833,269.833 157.5,267.5C 157.665,264.15 157.498,260.817 157,257.5C 155.924,254.921 154.091,253.254 151.5,252.5C 149.833,252.5 148.167,252.5 146.5,252.5C 141.869,253.583 138.869,251.917 137.5,247.5C 137.665,243.818 137.499,240.152 137,236.5C 135.871,234.859 134.371,233.859 132.5,233.5C 129.15,233.665 125.817,233.498 122.5,233C 120.333,232.167 118.833,230.667 118,228.5C 117.012,186.749 117.345,145.083 119,103.5C 119.75,102.874 120.584,102.374 121.5,102C 148.5,101.333 175.5,101.333 202.5,102C 203.667,103.167 204.833,104.333 206,105.5C 206.499,109.152 206.665,112.818 206.5,116.5 Z"/></g>
<g><path style="opacity:1" fill="#7f7f7f" d="M 206.5,116.5 C 218.167,114.167 222.833,118.833 220.5,130.5C 215.833,130.5 211.167,130.5 206.5,130.5C 206.5,125.833 206.5,121.167 206.5,116.5 Z"/></g>
<g><path style="opacity:1" fill="#7f7f7f" d="M 353.5,116.5 C 365.167,114.167 369.833,118.833 367.5,130.5C 362.833,130.5 358.167,130.5 353.5,130.5C 353.5,125.833 353.5,121.167 353.5,116.5 Z"/></g>
<g><path style="opacity:1" fill="#a5a5a5" d="M 206.5,130.5 C 211.167,130.5 215.833,130.5 220.5,130.5C 220.5,171.167 220.5,211.833 220.5,252.5C 216.818,252.665 213.152,252.499 209.5,252C 208.667,251.167 207.833,250.333 207,249.5C 206.5,209.835 206.333,170.168 206.5,130.5 Z"/></g>
<g><path style="opacity:1" fill="#4d4d4d" d="M 220.5,130.5 C 224.182,130.335 227.848,130.501 231.5,131C 232.333,131.833 233.167,132.667 234,133.5C 234.333,177.833 234.667,222.167 235,266.5C 237.415,267.411 238.915,269.078 239.5,271.5C 237.833,271.5 236.167,271.5 234.5,271.5C 234.5,270.167 234.5,268.833 234.5,267.5C 231.391,267.736 228.391,267.403 225.5,266.5C 225.665,262.818 225.499,259.152 225,255.5C 223.729,254.117 222.229,253.117 220.5,252.5C 220.5,211.833 220.5,171.167 220.5,130.5 Z"/></g>
<g><path style="opacity:1" fill="#a6a6a6" d="M 352.5,105.5 C 353.482,108.962 353.815,112.629 353.5,116.5C 353.5,121.167 353.5,125.833 353.5,130.5C 358.167,130.5 362.833,130.5 367.5,130.5C 367.667,168.168 367.5,205.835 367,243.5C 366.5,245.333 365.333,246.5 363.5,247C 359.5,247.333 355.5,247.667 351.5,248C 350.584,248.374 349.75,248.874 349,249.5C 348.135,255.101 346.968,260.601 345.5,266C 340.331,267.025 335.164,267.859 330,268.5C 329.135,274.101 327.968,279.601 326.5,285C 316.907,286.255 307.24,286.921 297.5,287C 296.333,288.167 295.167,289.333 294,290.5C 293.828,333.541 293.328,376.541 292.5,419.5C 291.975,420.192 291.308,420.692 290.5,421C 267.169,421.5 243.836,421.667 220.5,421.5C 220.5,416.833 220.5,412.167 220.5,407.5C 238.503,407.667 256.503,407.5 274.5,407C 276.848,406.89 278.348,405.723 279,403.5C 279.5,362.835 279.667,322.168 279.5,281.5C 283.182,281.665 286.848,281.499 290.5,281C 293.125,278.804 294.125,275.97 293.5,272.5C 290.167,272.5 286.833,272.5 283.5,272.5C 292.658,271.67 301.991,271.17 311.5,271C 312.833,265.333 314.167,259.667 315.5,254C 320.802,252.94 326.135,251.94 331.5,251C 332.804,245.466 334.138,239.966 335.5,234.5C 339.445,233.732 343.445,233.232 347.5,233C 349.329,232.727 350.829,231.893 352,230.5C 352.5,188.835 352.667,147.168 352.5,105.5 Z"/></g>
<g><path style="opacity:1" fill="#4d4d4d" d="M 367.5,130.5 C 371.182,130.335 374.848,130.501 378.5,131C 379.333,131.833 380.167,132.667 381,133.5C 381.667,175.167 381.667,216.833 381,258.5C 380.5,259.667 379.667,260.5 378.5,261C 374.5,261.333 370.5,261.667 366.5,262C 365.069,262.465 363.903,263.299 363,264.5C 362.667,268.833 362.333,273.167 362,277.5C 361.626,278.416 361.126,279.25 360.5,280C 355.614,281.224 350.614,281.891 345.5,282C 344.667,282.833 343.833,283.667 343,284.5C 342.667,288.833 342.333,293.167 342,297.5C 341.692,298.308 341.192,298.975 340.5,299.5C 331.214,300.307 321.881,300.807 312.5,301C 311,301.833 309.833,303 309,304.5C 308.667,347.167 308.333,389.833 308,432.5C 306.786,434.049 305.286,435.215 303.5,436C 277.167,436.667 250.833,436.667 224.5,436C 223.069,435.535 221.903,434.701 221,433.5C 220.501,429.514 220.334,425.514 220.5,421.5C 243.836,421.667 267.169,421.5 290.5,421C 291.308,420.692 291.975,420.192 292.5,419.5C 293.328,376.541 293.828,333.541 294,290.5C 295.167,289.333 296.333,288.167 297.5,287C 307.24,286.921 316.907,286.255 326.5,285C 327.968,279.601 329.135,274.101 330,268.5C 335.164,267.859 340.331,267.025 345.5,266C 346.968,260.601 348.135,255.101 349,249.5C 349.75,248.874 350.584,248.374 351.5,248C 355.5,247.667 359.5,247.333 363.5,247C 365.333,246.5 366.5,245.333 367,243.5C 367.5,205.835 367.667,168.168 367.5,130.5 Z"/></g>
<g><path style="opacity:1" fill="#7f7f7f" d="M 132.5,233.5 C 134.371,233.859 135.871,234.859 137,236.5C 137.499,240.152 137.665,243.818 137.5,247.5C 135.629,247.141 134.129,246.141 133,244.5C 132.501,240.848 132.335,237.182 132.5,233.5 Z"/></g>
<g><path style="opacity:1" fill="#494949" d="M 146.5,252.5 C 148.167,252.5 149.833,252.5 151.5,252.5C 151.5,255.5 151.5,258.5 151.5,261.5C 147.541,259.927 145.875,256.927 146.5,252.5 Z"/></g>
<g><path style="opacity:1" fill="#9d9d9d" d="M 151.5,252.5 C 154.091,253.254 155.924,254.921 157,257.5C 157.498,260.817 157.665,264.15 157.5,267.5C 154.445,266.445 152.445,264.445 151.5,261.5C 151.5,258.5 151.5,255.5 151.5,252.5 Z"/></g>
<g><path style="opacity:1" fill="#aeaeae" d="M 225.5,266.5 C 228.391,267.403 231.391,267.736 234.5,267.5C 234.5,268.833 234.5,270.167 234.5,271.5C 236.167,271.5 237.833,271.5 239.5,271.5C 239.833,271.5 240.167,271.5 240.5,271.5C 237.36,272.641 234.027,272.808 230.5,272C 227.921,270.924 226.254,269.091 225.5,266.5 Z"/></g>
<g><path style="opacity:1" fill="#4b4b4b" d="M 166.5,272.5 C 168.167,272.5 169.833,272.5 171.5,272.5C 171.5,275.5 171.5,278.5 171.5,281.5C 167.082,280.17 165.415,277.17 166.5,272.5 Z"/></g>
<g><path style="opacity:1" fill="#a9a9a9" d="M 161.5,271.5 C 170.173,271.334 178.84,271.5 187.5,272C 188.667,273.167 189.833,274.333 191,275.5C 191.499,279.152 191.665,282.818 191.5,286.5C 189.5,286.5 187.5,286.5 185.5,286.5C 185.376,284.418 184.376,282.918 182.5,282C 178.848,281.501 175.182,281.335 171.5,281.5C 171.5,278.5 171.5,275.5 171.5,272.5C 169.833,272.5 168.167,272.5 166.5,272.5C 164.585,272.784 162.919,272.451 161.5,271.5 Z"/></g>
<g><path style="opacity:1" fill="#818181" d="M 283.5,272.5 C 286.833,272.5 290.167,272.5 293.5,272.5C 294.125,275.97 293.125,278.804 290.5,281C 286.848,281.499 283.182,281.665 279.5,281.5C 278.659,277.425 279.992,274.425 283.5,272.5 Z"/></g>
<g><path style="opacity:1" fill="#7d7d7d" d="M 171.5,281.5 C 175.182,281.335 178.848,281.501 182.5,282C 184.376,282.918 185.376,284.418 185.5,286.5C 181.818,286.665 178.152,286.499 174.5,286C 173.117,284.729 172.117,283.229 171.5,281.5 Z"/></g>
<g><path style="opacity:1" fill="#3d3d3d" d="M 185.5,286.5 C 187.5,286.5 189.5,286.5 191.5,286.5C 191.5,324.833 191.5,363.167 191.5,401.5C 190.833,367.998 190.167,334.331 189.5,300.5C 187.803,299.636 186.637,298.303 186,296.5C 185.502,293.183 185.335,289.85 185.5,286.5 Z"/></g>
<g><path style="opacity:1" fill="#7e7e7e" d="M 205.5,407.5 C 210.5,407.5 215.5,407.5 220.5,407.5C 220.5,412.167 220.5,416.833 220.5,421.5C 208.398,424.397 203.398,419.73 205.5,407.5 Z"/></g>
</svg>
